<svg width="25" height="24" viewBox="0 0 25 24" fill="none" xmlns="http://www.w3.org/2000/svg">
<g clip-path="url(#clip0_202_1981)">
<path d="M19.2002 2H5.2002C2.4402 2 0.200195 4.24 0.200195 7V17C0.200195 19.76 2.4402 22 5.2002 22H12.2002C12.7502 22 13.2002 21.55 13.2002 21C13.2002 20.45 12.7502 20 12.2002 20H5.2002C3.5502 20 2.2002 18.65 2.2002 17V9H22.2002V14C22.2002 14.55 22.6502 15 23.2002 15C23.7502 15 24.2002 14.55 24.2002 14V7C24.2002 4.24 21.9602 2 19.2002 2ZM2.2002 7C2.2002 5.35 3.5502 4 5.2002 4H19.2002C20.8502 4 22.2002 5.35 22.2002 7H2.2002ZM16.6102 12.17C15.8502 11.41 14.8502 11 13.7802 11H12.1902C11.6402 11 11.1902 11.45 11.1902 12V13.59C11.1902 14.66 11.6102 15.66 12.3602 16.42L19.0702 23.13C19.6402 23.7 20.3902 24.01 21.1902 24.01C21.9902 24.01 22.7402 23.7 23.3102 23.13C23.8802 22.56 24.1902 21.81 24.1902 21.01C24.1902 20.21 23.8802 19.46 23.3102 18.89L16.6002 12.18L16.6102 12.17ZM21.9002 21.71C21.5202 22.09 20.8602 22.09 20.4902 21.71L13.7802 15C13.4002 14.62 13.1902 14.12 13.1902 13.59V13H13.7802C14.3102 13 14.8202 13.21 15.1902 13.59L21.9002 20.3C22.0902 20.49 22.1902 20.74 22.1902 21.01C22.1902 21.28 22.0902 21.53 21.9002 21.72V21.71Z" fill="#676D75"/>
</g>
<defs>
<clipPath id="clip0_202_1981">
<rect width="24" height="24" fill="white" transform="translate(0.200195)"/>
</clipPath>
</defs>
</svg>
