<svg width="24" height="24" viewBox="0 0 24 24" fill="none" xmlns="http://www.w3.org/2000/svg">
<path d="M17.8645 22.225L17.8645 22.225L17.8593 22.2219L13.379 19.5639C13.2905 19.5114 13.19 19.4826 13.0871 19.4801C12.6358 19.4694 12.1924 19.4373 11.7763 19.375L11.7753 19.3748C11.6843 19.3613 11.6098 19.3021 11.577 19.2167C11.5452 19.1343 11.5588 19.0539 11.6177 18.9852C12.4467 18.0184 12.8795 16.853 12.8795 15.6128C12.8795 12.535 10.1855 10.11 6.97235 10.11C5.76937 10.11 4.60503 10.441 3.61971 11.0878C3.54653 11.1332 3.46295 11.1396 3.38322 11.1047C3.30096 11.0636 3.25317 10.99 3.24466 10.9223C3.21282 10.6245 3.19253 10.3352 3.19253 10.04C3.19253 4.86787 7.69131 0.6 13.2963 0.6C18.9013 0.6 23.4 4.86787 23.4 10.04C23.4 12.8839 22.0848 15.5031 19.7458 17.304C19.5773 17.4337 19.4901 17.6429 19.5165 17.8538L19.8958 20.8872C19.8959 20.8879 19.896 20.8885 19.8961 20.8892C19.958 21.4218 19.7266 21.9124 19.2836 22.2004C19.0642 22.3411 18.8079 22.4171 18.5588 22.4171C18.3166 22.4171 18.0789 22.3551 17.8645 22.225ZM12.7485 18.1252C12.652 18.318 12.6665 18.5477 12.7862 18.727C12.906 18.9062 13.1128 19.0074 13.3278 18.9921C13.341 18.9911 13.3668 18.9941 13.3993 19.0158C13.4079 19.0215 13.4167 19.0271 13.4256 19.0324L18.1011 21.8096C18.2627 21.9098 18.445 21.9571 18.6309 21.9412C18.804 21.9264 18.9385 21.8604 19.0272 21.8029C19.22 21.681 19.4831 21.3901 19.4219 20.9401L18.9874 17.4215C18.9779 17.3215 19.0208 17.2336 19.0875 17.1835C21.5139 15.4809 22.9241 12.8695 22.9241 10.0176C22.9241 5.03183 18.5671 1.05284 13.2963 1.05284C8.22361 1.05284 3.99472 4.74713 3.68097 9.4754C3.6674 9.67985 3.7591 9.87708 3.92417 9.99848C4.08923 10.1199 4.30483 10.1486 4.49595 10.0748C5.26747 9.77659 6.09929 9.61255 6.96118 9.61255C10.5187 9.61255 13.3443 12.3254 13.3443 15.5904H13.3443L13.3444 15.5972C13.3544 16.4784 13.1444 17.3338 12.7485 18.1252Z" stroke="#676D75" stroke-width="1.2" stroke-linejoin="round"/>
<path d="M3.2103 23.2518L3.20756 23.2501C2.8953 23.0489 2.7352 22.7127 2.77446 22.3521L2.99721 20.6377C3.02398 20.4316 2.94223 20.2264 2.78111 20.0952C1.40648 18.9756 0.6 17.3233 0.6 15.6018C0.6 13.6381 1.62723 11.7923 3.37265 10.6802L3.37266 10.6802L3.37731 10.6772C4.42861 9.99367 5.67764 9.62393 6.98314 9.62393C10.5407 9.62393 13.3663 12.3368 13.3663 15.6018C13.3663 16.931 12.8823 18.2451 11.9907 19.2883L11.9906 19.2882L11.984 19.2963C10.8381 20.6848 9.11573 21.5071 7.19844 21.5689C7.09721 21.5721 6.99845 21.601 6.91136 21.6527L4.18642 23.2713C4.18621 23.2714 4.18599 23.2716 4.18578 23.2717C4.03745 23.3592 3.87583 23.4001 3.70945 23.4001C3.53188 23.4001 3.36698 23.354 3.2103 23.2518ZM4.18341 22.7068L6.85125 21.1225C6.90924 21.089 6.95072 21.0822 6.97197 21.0822C8.77883 21.0822 10.5057 20.3098 11.6113 18.9682C12.4331 17.996 12.8792 16.8342 12.8792 15.5906C12.8792 12.5231 10.1842 10.0991 6.97197 10.0991C5.76824 10.0991 4.60316 10.4304 3.61741 11.0781C2.02872 12.0968 1.06479 13.7766 1.06479 15.6018C1.06479 17.3591 1.92799 18.9587 3.42421 19.9819C3.49462 20.0316 3.53565 20.115 3.52673 20.2126L3.28195 22.1143C3.25265 22.3419 3.35574 22.5663 3.5475 22.6923C3.73926 22.8184 3.98611 22.824 4.18341 22.7068Z" stroke="#676D75" stroke-width="1.2" stroke-linejoin="round"/>
<path d="M9 7.5H18" stroke="#676D75" stroke-width="1.2" stroke-linecap="round"/>
<path d="M12 12L18 12" stroke="#676D75" stroke-width="1.2" stroke-linecap="round"/>
<path d="M4.5 14.25H9" stroke="#676D75" stroke-width="1.2" stroke-linecap="round"/>
<path d="M6 17.25H9" stroke="#676D75" stroke-width="1.2" stroke-linecap="round"/>
</svg>
