<svg width="25" height="25" viewBox="0 0 25 25" fill="none" xmlns="http://www.w3.org/2000/svg">
<path d="M8.55354 17.7059L15.1746 15.3274C15.2787 15.2899 15.3733 15.2299 15.4515 15.1516C15.5297 15.0734 15.5897 14.9789 15.6272 14.8748L18.0062 8.25368C18.0543 8.11981 18.0633 7.97502 18.0323 7.8362C18.0012 7.69738 17.9313 7.57026 17.8307 7.46967C17.7301 7.36908 17.603 7.29917 17.4642 7.26811C17.3254 7.23704 17.1806 7.24609 17.0467 7.29421L10.4249 9.67238C10.3208 9.7098 10.2262 9.76979 10.1481 9.84805C10.0699 9.9263 10.01 10.0209 9.97262 10.125L7.59444 16.7465C7.54637 16.8803 7.53734 17.025 7.5684 17.1638C7.59946 17.3026 7.66933 17.4296 7.76986 17.5302C7.87039 17.6308 7.99744 17.7007 8.1362 17.7318C8.27495 17.7629 8.41969 17.7539 8.55354 17.7059ZM11.2646 10.9647L16.0565 9.24353L14.3353 14.0351L9.54377 15.7562L11.2646 10.9647Z" fill="#676D75"/>
<path d="M12.8 23C14.8768 23 16.9068 22.3842 18.6335 21.2304C20.3603 20.0767 21.7061 18.4368 22.5008 16.5182C23.2955 14.5996 23.5034 12.4884 23.0983 10.4516C22.6931 8.41476 21.6931 6.54383 20.2247 5.07538C18.7562 3.60693 16.8853 2.6069 14.8485 2.20176C12.8117 1.79661 10.7005 2.00455 8.78187 2.79927C6.86325 3.59399 5.22337 4.9398 4.06962 6.66652C2.91586 8.39323 2.30005 10.4233 2.30005 12.5C2.30319 15.2838 3.41044 17.9527 5.37889 19.9212C7.34734 21.8896 10.0162 22.9969 12.8 23ZM12.8 3.5C14.5801 3.5 16.3201 4.02785 17.8002 5.01678C19.2802 6.00571 20.4338 7.41132 21.115 9.05585C21.7962 10.7004 21.9744 12.51 21.6271 14.2558C21.2798 16.0016 20.4227 17.6053 19.164 18.864C17.9053 20.1226 16.3017 20.9798 14.5559 21.3271C12.81 21.6743 11.0004 21.4961 9.3559 20.8149C7.71136 20.1337 6.30576 18.9802 5.31682 17.5001C4.32789 16.0201 3.80005 14.28 3.80005 12.5C3.80265 10.1139 4.7517 7.82618 6.43896 6.13892C8.12622 4.45165 10.4139 3.50261 12.8 3.5Z" fill="#676D75"/>
</svg>
