<svg width="75" height="24" viewBox="0 0 75 24" fill="none" xmlns="http://www.w3.org/2000/svg">
<path fill-rule="evenodd" clip-rule="evenodd" d="M36.9862 1.21065C37.3473 0.929784 37.8529 0.929784 38.214 1.21065L47.214 8.21065C47.4576 8.4001 47.6001 8.69141 47.6001 9V20C47.6001 20.7957 47.284 21.5587 46.7214 22.1213C46.1588 22.6839 45.3957 23 44.6001 23H30.6001C29.8044 23 29.0414 22.6839 28.4788 22.1213C27.9162 21.5587 27.6001 20.7957 27.6001 20V9C27.6001 8.69141 27.7426 8.4001 27.9862 8.21065L36.9862 1.21065ZM29.6001 9.48908V20C29.6001 20.2652 29.7055 20.5196 29.893 20.7071C30.0805 20.8946 30.3349 21 30.6001 21H44.6001C44.8653 21 45.1197 20.8946 45.3072 20.7071C45.4947 20.5196 45.6001 20.2652 45.6001 20V9.48908L37.6001 3.26686L29.6001 9.48908Z" fill="#827BEB"/>
<path fill-rule="evenodd" clip-rule="evenodd" d="M33.6001 12C33.6001 11.4477 34.0478 11 34.6001 11H40.6001C41.1524 11 41.6001 11.4477 41.6001 12V22C41.6001 22.5523 41.1524 23 40.6001 23C40.0478 23 39.6001 22.5523 39.6001 22V13H35.6001V22C35.6001 22.5523 35.1524 23 34.6001 23C34.0478 23 33.6001 22.5523 33.6001 22V12Z" fill="#827BEB"/>
</svg>
